HIERARCHY
ROOT Hips
{
  OFFSET 5.84602e-005 68.8428 3.50346
  CHANNELS 6 Xposition Yposition Zposition Zrotation Xrotation Yrotation
  JOINT Spine
  {
    OFFSET 0 8.597 -4.6522
    CHANNELS 3 Zrotation Xrotation Yrotation
    JOINT Spine1
    {
      OFFSET 0 7.8454 0.4098
      CHANNELS 3 Zrotation Xrotation Yrotation
      JOINT Spine2
      {
        OFFSET 0 9.7078 -2.1609
        CHANNELS 3 Zrotation Xrotation Yrotation
        JOINT Neck
        {
          OFFSET 0 21.8761 -0.4549
          CHANNELS 3 Zrotation Xrotation Yrotation
          JOINT Head
          {
            OFFSET 0 12.3537 3.3602
            CHANNELS 3 Zrotation Xrotation Yrotation
            End Site
            {
              OFFSET 0.0001 18.9506 0.5657
            }
          }
        }
        JOINT LeftShoulder
        {
          OFFSET 2.2086 21.1115 7.2329
          CHANNELS 3 Zrotation Xrotation Yrotation
          JOINT LeftArm
          {
            OFFSET 13.1193 3.0282 -4.8998
            CHANNELS 3 Zrotation Xrotation Yrotation
            JOINT LeftForeArm
            {
              OFFSET 27.4081 -0.0973053 -0.2375
              CHANNELS 3 Zrotation Xrotation Yrotation
              JOINT LeftHand
              {
                OFFSET 22.8641 0.0662994 -0.1369
                CHANNELS 3 Zrotation Xrotation Yrotation
                JOINT LeftHandIndex1
                {
                  OFFSET 8.8614 0.775009 2.4612
                  CHANNELS 3 Zrotation Xrotation Yrotation
                  JOINT LeftHandIndex2
                  {
                    OFFSET 3.3146 -0.808304 0.5841
                    CHANNELS 3 Zrotation Xrotation Yrotation
                    JOINT LeftHandIndex3
                    {
                      OFFSET 2.2628 -0.552002 0.3989
                      CHANNELS 3 Zrotation Xrotation Yrotation
                      End Site
                      {
                        OFFSET 1.6102 -0.4807 0.2612
                      }
                    }
                  }
                }
                JOINT LeftHandMiddle1
                {
                  OFFSET 8.9937 0.895004 0.2143
                  CHANNELS 3 Zrotation Xrotation Yrotation
                  JOINT LeftHandMiddle2
                  {
                    OFFSET 4.0984 0.0113983 -0.0242
                    CHANNELS 3 Zrotation Xrotation Yrotation
                    JOINT LeftHandMiddle3
                    {
                      OFFSET 2.2716 0.00689697 -0.0138001
                      CHANNELS 3 Zrotation Xrotation Yrotation
                      End Site
                      {
                        OFFSET 2.0404 -0.1441 0.0027
                      }
                    }
                  }
                }
                JOINT LeftHandRing1
                {
                  OFFSET 8.5234 0.597198 -2.0164
                  CHANNELS 3 Zrotation Xrotation Yrotation
                  JOINT LeftHandRing2
                  {
                    OFFSET 3.7188 -0.188293 -0.2328
                    CHANNELS 3 Zrotation Xrotation Yrotation
                    JOINT LeftHandRing3
                    {
                      OFFSET 2.1191 -0.106598 -0.1332
                      CHANNELS 3 Zrotation Xrotation Yrotation
                      End Site
                      {
                        OFFSET 1.8737 -0.2304 -0.0886
                      }
                    }
                  }
                }
                JOINT LeftHandPinky1
                {
                  OFFSET 7.9094 -0.601089 -3.4825
                  CHANNELS 3 Zrotation Xrotation Yrotation
                  JOINT LeftHandPinky2
                  {
                    OFFSET 2.2874 -0.477005 -0.6314
                    CHANNELS 3 Zrotation Xrotation Yrotation
                    JOINT LeftHandPinky3
                    {
                      OFFSET 1.6774 -0.349396 -0.4633
                      CHANNELS 3 Zrotation Xrotation Yrotation
                      End Site
                      {
                        OFFSET 1.4888 -0.4091 -0.3416
                      }
                    }
                  }
                }
                JOINT LeftHandThumb1
                {
                  OFFSET 1.833 -1.3875 1.3896
                  CHANNELS 3 Zrotation Xrotation Yrotation
                  JOINT LeftHandThumb2
                  {
                    OFFSET 3.4129 -1.121 2.5732
                    CHANNELS 3 Zrotation Xrotation Yrotation
                    JOINT LeftHandThumb3
                    {
                      OFFSET 2.2474 -0.804199 1.6192
                      CHANNELS 3 Zrotation Xrotation Yrotation
                      End Site
                      {
                        OFFSET 1.6527 -0.5689 1.1317
                      }
                    }
                  }
                }
              }
            }
          }
        }
        JOINT RightShoulder
        {
          OFFSET -2.2086 21.1115 7.2329
          CHANNELS 3 Zrotation Xrotation Yrotation
          JOINT RightArm
          {
            OFFSET -13.1216 3.0287 -4.9007
            CHANNELS 3 Zrotation Xrotation Yrotation
            JOINT RightForeArm
            {
              OFFSET -27.4081 -0.0973053 -0.2375
              CHANNELS 3 Zrotation Xrotation Yrotation
              JOINT RightHand
              {
                OFFSET -22.8641 0.0664063 -0.1369
                CHANNELS 3 Zrotation Xrotation Yrotation
                JOINT RightHandIndex1
                {
                  OFFSET -8.8614 0.774994 2.4612
                  CHANNELS 3 Zrotation Xrotation Yrotation
                  JOINT RightHandIndex2
                  {
                    OFFSET -3.3146 -0.808304 0.5841
                    CHANNELS 3 Zrotation Xrotation Yrotation
                    JOINT RightHandIndex3
                    {
                      OFFSET -2.2628 -0.552002 0.3989
                      CHANNELS 3 Zrotation Xrotation Yrotation
                      End Site
                      {
                        OFFSET -1.6102 -0.4807 0.2612
                      }
                    }
                  }
                }
                JOINT RightHandMiddle1
                {
                  OFFSET -8.9937 0.894989 0.2143
                  CHANNELS 3 Zrotation Xrotation Yrotation
                  JOINT RightHandMiddle2
                  {
                    OFFSET -4.0984 0.0113983 -0.0242
                    CHANNELS 3 Zrotation Xrotation Yrotation
                    JOINT RightHandMiddle3
                    {
                      OFFSET -2.2716 0.00691223 -0.0138001
                      CHANNELS 3 Zrotation Xrotation Yrotation
                      End Site
                      {
                        OFFSET -2.0404 -0.1441 0.0027
                      }
                    }
                  }
                }
                JOINT RightHandRing1
                {
                  OFFSET -8.5234 0.597198 -2.0164
                  CHANNELS 3 Zrotation Xrotation Yrotation
                  JOINT RightHandRing2
                  {
                    OFFSET -3.7188 -0.188309 -0.2328
                    CHANNELS 3 Zrotation Xrotation Yrotation
                    JOINT RightHandRing3
                    {
                      OFFSET -2.1191 -0.106598 -0.1332
                      CHANNELS 3 Zrotation Xrotation Yrotation
                      End Site
                      {
                        OFFSET -1.8737 -0.2304 -0.0886
                      }
                    }
                  }
                }
                JOINT RightHandPinky1
                {
                  OFFSET -7.9094 -0.601105 -3.4825
                  CHANNELS 3 Zrotation Xrotation Yrotation
                  JOINT RightHandPinky2
                  {
                    OFFSET -2.2874 -0.477005 -0.6314
                    CHANNELS 3 Zrotation Xrotation Yrotation
                    JOINT RightHandPinky3
                    {
                      OFFSET -1.6774 -0.349396 -0.4633
                      CHANNELS 3 Zrotation Xrotation Yrotation
                      End Site
                      {
                        OFFSET -1.4888 -0.4091 -0.3416
                      }
                    }
                  }
                }
                JOINT RightHandThumb1
                {
                  OFFSET -1.833 -1.38751 1.3896
                  CHANNELS 3 Zrotation Xrotation Yrotation
                  JOINT RightHandThumb2
                  {
                    OFFSET -3.41299 -1.12099 2.5732
                    CHANNELS 3 Zrotation Xrotation Yrotation
                    JOINT RightHandThumb3
                    {
                      OFFSET -2.24741 -0.804108 1.6192
                      CHANNELS 3 Zrotation Xrotation Yrotation
                      End Site
                      {
                        OFFSET -1.6527 -0.5689 1.1317
                      }
                    }
                  }
                }
              }
            }
          }
        }
      }
    }
  }
  JOINT RightUpLeg
  {
    OFFSET -9.1966 3.8861 -0.7581
    CHANNELS 3 Zrotation Xrotation Yrotation
    JOINT RightLeg
    {
      OFFSET -0.7359 -41.0265 0
      CHANNELS 3 Zrotation Xrotation Yrotation
      JOINT RightFoot
      {
        OFFSET 0 -40.2855 0
        CHANNELS 3 Zrotation Xrotation Yrotation
        JOINT RightToeBase
        {
          OFFSET 0 -5.6122 11.7359
          CHANNELS 3 Zrotation Xrotation Yrotation
          End Site
          {
            OFFSET 0 0 7.8731
          }
        }
      }
    }
  }
  JOINT LeftUpLeg
  {
    OFFSET 9.1965 3.8864 -0.7581
    CHANNELS 3 Zrotation Xrotation Yrotation
    JOINT LeftLeg
    {
      OFFSET 0.7359 -41.0268 0
      CHANNELS 3 Zrotation Xrotation Yrotation
      JOINT LeftFoot
      {
        OFFSET 0 -40.2855 0
        CHANNELS 3 Zrotation Xrotation Yrotation
        JOINT LeftToeBase
        {
          OFFSET 0 -5.6122 11.7359
          CHANNELS 3 Zrotation Xrotation Yrotation
          End Site
          {
            OFFSET 0 0 7.8731
          }
        }
      }
    }
  }
}
MOTION
Frames:	4
Frame Time:	0.0333333
39.7105 68.8709 7.73542 0 0.199953 -0 -0.0392287 -0.168101 -0.125246 -0.0788251 -0.336054 -0.250608 -0.0788251 -0.336054 -0.250608 -7.82881e-005 28.2118 0.000353138 9.1756e-009 -0.26403 -1.28295e-007 -4.95964 0.111904 7.66097 -57.3276 23.7746 8.4804 -30.0418 9.96665 -42.4918 -7.00032 -3.5392e-007 -4.58553e-007 -6.36111e-015 -6.36111e-015 -3.18055e-015 -2.38542e-015 0 -0 -5.32149e-008 1.21873e-007 1.66878e-007 -6.36111e-015 -6.36111e-015 -3.18055e-015 -0.0146229 -8.85522e-005 -2.29196e-006 -1.52159e-006 -7.60642e-007 5.88635e-007 -6.36111e-015 -6.36111e-015 -3.18055e-015 -0.0188325 -0.00117805 5.856e-005 -5.3214e-008 1.21846e-007 1.66899e-007 -6.36111e-015 -6.36111e-015 -3.18055e-015 -0.0123156 -0.00325965 0.000677374 -5.321e-008 1.21856e-007 1.66893e-007 -6.36111e-015 -6.36111e-015 -3.18055e-015 -2.38542e-015 0 -0 -5.32149e-008 1.21873e-007 1.66878e-007 4.95635 0.112032 -7.66386 57.3239 23.7732 -8.48274 30.0387 9.96435 42.4884 6.99681 1.9416e-006 1.49757e-006 1.03764e-007 2.4607e-007 -3.32776e-007 -2.58382e-007 5.92892e-007 1.98261e-006 -5.18819e-008 -1.23035e-007 1.66388e-007 1.03764e-007 2.4607e-007 -3.32776e-007 0.0149812 -8.94314e-005 3.98486e-006 -5.18826e-008 -1.23013e-007 1.66404e-007 1.03764e-007 2.4607e-007 -3.32776e-007 0.0189853 -0.00118898 -5.88199e-005 -5.18812e-008 -1.23008e-007 1.66409e-007 1.03764e-007 2.4607e-007 -3.32776e-007 0.0122679 -0.00324432 -0.000674909 1.33443e-006 -1.0909e-006 -2.63072e-007 1.03764e-007 2.4607e-007 -3.32776e-007 -2.58382e-007 5.92892e-007 1.98261e-006 -5.18819e-008 -1.23035e-007 1.66388e-007 -2.88858 -0.600014 -8.86211 6.04111 13.3848 -1.54311 -12.1858 -4.80904 2.89919 -2.18663e-015 0 7.95139e-016 4.77097 -1.27661 4.7354 -3.16051 14.3017 0.848053 6.96122 -4.92215 -0.608618 -3.8763e-015 1.59028e-015 -3.97569e-016 
39.7105 68.8631 7.63604 0 0.33326 -0 -0.0393124 -0.147975 -0.12508 -0.0789483 -0.295845 -0.250264 -0.0789482 -0.295845 -0.250264 3.82684e-005 27.8848 -0.000195725 -2.26824e-008 -0.264031 1.11561e-008 -4.95979 0.111335 7.66045 -57.3276 23.7746 8.4804 -30.0419 9.96666 -42.4918 -7.00034 3.62627e-006 -6.65409e-006 7.95139e-016 6.36111e-015 9.54166e-015 -3.88515e-006 -4.77991e-007 -9.90981e-007 -2.64375e-007 6.09416e-007 8.34933e-007 7.95139e-016 6.36111e-015 9.54166e-015 -0.0145677 -8.85665e-005 -1.45288e-007 -2.64377e-007 6.0931e-007 8.35011e-007 7.95139e-016 6.36111e-015 9.54166e-015 -0.0187295 -0.00117372 5.83799e-005 -1.73954e-006 -2.77986e-007 1.27594e-006 7.95139e-016 6.36111e-015 9.54166e-015 -0.0122969 -0.00325409 0.000676333 -2.6435e-007 6.09327e-007 8.35006e-007 7.95139e-016 6.36111e-015 9.54166e-015 -3.88515e-006 -4.77991e-007 -9.90981e-007 -2.64375e-007 6.09416e-007 8.34933e-007 4.9562 0.11138 -7.66428 57.3239 23.7732 -8.48272 30.0387 9.96435 42.4884 6.99683 1.7991e-006 2.97838e-006 5.15433e-008 1.23049e-007 -1.66493e-007 1.03087e-007 2.46097e-007 -3.32986e-007 5.15433e-008 1.23049e-007 -1.66493e-007 5.15433e-008 1.23049e-007 -1.66493e-007 0.0149874 -9.10479e-005 -5.25637e-006 5.1544e-008 1.23027e-007 -1.66509e-007 5.15433e-008 1.23049e-007 -1.66493e-007 0.0189914 -0.00118834 -6.32674e-005 5.15426e-008 1.23021e-007 -1.66514e-007 5.15433e-008 1.23049e-007 -1.66493e-007 0.0122219 -0.0032353 -0.000673791 5.15386e-008 1.23031e-007 -1.66508e-007 5.15433e-008 1.23049e-007 -1.66493e-007 1.03087e-007 2.46097e-007 -3.32986e-007 5.15433e-008 1.23049e-007 -1.66493e-007 -2.88569 -0.835689 -8.76454 6.04102 13.3811 -1.54279 -12.1856 -4.80872 2.89924 7.52113e-007 -5.27514e-008 1.33656e-006 4.77056 -1.51342 4.69342 -3.16049 14.3002 0.847971 6.96124 -4.92222 -0.608612 2.78299e-015 -1.59028e-015 1.59028e-015 
39.7106 68.8552 7.53664 0 0.466573 -0 -0.0394326 -0.127998 -0.125031 -0.0791448 -0.25592 -0.250152 -0.0791448 -0.25592 -0.250152 6.37446e-006 27.5601 -7.27802e-005 -1.75e-008 -0.264039 1.03456e-007 -4.95976 0.111458 7.66056 -57.3276 23.7746 8.48039 -30.0418 9.96665 -42.4918 -7.00033 -2.51213e-006 -6.51238e-008 -1.4632e-006 3.23115e-007 -6.82021e-007 1.40855e-007 -1.58054e-006 6.40952e-007 1.74354e-007 8.49182e-007 -1.64352e-006 -1.4632e-006 3.23115e-007 -6.82021e-007 -0.0146158 -8.93933e-005 -1.97826e-006 -1.30683e-006 -4.2419e-008 -1.18331e-006 -1.4632e-006 3.23115e-007 -6.82021e-007 -0.0187192 -0.00117604 6.0268e-005 -1.30718e-006 -4.24675e-008 -1.18329e-006 -1.4632e-006 3.23115e-007 -6.82021e-007 -0.0122553 -0.00324728 0.000678306 1.7436e-007 8.49369e-007 -1.64343e-006 -1.4632e-006 3.23115e-007 -6.82021e-007 1.40855e-007 -1.58054e-006 6.40952e-007 1.74354e-007 8.49182e-007 -1.64352e-006 4.95623 0.111522 -7.66419 57.3239 23.7732 -8.48273 30.0387 9.96434 42.4884 6.99682 3.78737e-006 -9.58583e-007 3.07226e-007 7.38368e-007 -9.99585e-007 -1.53613e-007 -3.69184e-007 4.99792e-007 2.56022e-007 6.15307e-007 -8.32987e-007 3.07226e-007 7.38368e-007 -9.99585e-007 0.0149814 -9.32366e-005 -1.54386e-006 2.56025e-007 6.15198e-007 -8.33068e-007 3.07226e-007 7.38368e-007 -9.99585e-007 0.0189701 -0.00118735 -5.6336e-005 2.56018e-007 6.15169e-007 -8.33092e-007 3.07226e-007 7.38368e-007 -9.99585e-007 0.0122875 -0.00325182 -0.0006753 2.79455e-006 -4.63532e-008 -5.60517e-007 3.07226e-007 7.38368e-007 -9.99585e-007 -1.53613e-007 -3.69184e-007 4.99792e-007 2.56022e-007 6.15307e-007 -8.32987e-007 -2.88245 -1.0716 -8.66694 6.04094 13.3778 -1.54251 -12.1855 -4.80861 2.89925 8.72633e-007 -2.30452e-006 -7.2502e-007 4.76997 -1.75006 4.65142 -3.16046 14.2984 0.847876 6.96126 -4.9221 -0.608619 -5.84297e-008 -8.18705e-007 4.85091e-007 
39.7106 68.8474 7.43722 0 0.59989 -0 -0.0395232 -0.107939 -0.124889 -0.0792821 -0.215809 -0.249854 -0.079282 -0.215809 -0.249854 8.73733e-005 27.2332 -0.000482729 5.11208e-008 -0.264033 -1.98294e-007 -4.95987 0.11119 7.66017 -57.3276 23.7746 8.48039 -30.0418 9.96666 -42.4918 -7.00032 1.01202e-006 -2.03337e-006 5.21944e-008 -1.21901e-007 -1.67201e-007 8.89791e-008 2.30951e-006 -2.45202e-006 -1.56583e-007 3.65703e-007 5.01602e-007 5.21944e-008 -1.21901e-007 -1.67201e-007 -0.0146302 -8.78183e-005 -5.98695e-006 -1.56584e-007 3.65639e-007 5.01649e-007 5.21944e-008 -1.21901e-007 -1.67201e-007 -0.0187608 -0.00117438 5.61264e-005 -1.5658e-007 3.65621e-007 5.01664e-007 5.21944e-008 -1.21901e-007 -1.67201e-007 -0.0123104 -0.00325714 0.000677157 -1.56568e-007 3.6565e-007 5.01646e-007 5.21944e-008 -1.21901e-007 -1.67201e-007 8.89791e-008 2.30951e-006 -2.45202e-006 -1.56583e-007 3.65703e-007 5.01602e-007 4.95612 0.111192 -7.66453 57.3239 23.7732 -8.48274 30.0387 9.96435 42.4884 6.99683 -3.36466e-007 -5.61598e-007 5.08653e-008 1.23074e-007 -1.66701e-007 1.01731e-007 2.46147e-007 -3.33403e-007 5.08653e-008 1.23074e-007 -1.66701e-007 5.08653e-008 1.23074e-007 -1.66701e-007 0.0150109 -9.19181e-005 4.0562e-006 2.58317e-006 -5.23636e-007 1.33124e-007 5.08653e-008 1.23074e-007 -1.66701e-007 0.0189968 -0.00119011 -6.00845e-005 5.08645e-008 1.23046e-007 -1.66722e-007 5.08653e-008 1.23074e-007 -1.66701e-007 0.0122602 -0.00324461 -0.000677822 5.08605e-008 1.23056e-007 -1.66716e-007 5.08653e-008 1.23074e-007 -1.66701e-007 1.01731e-007 2.46147e-007 -3.33403e-007 5.08653e-008 1.23074e-007 -1.66701e-007 -2.8788 -1.30746 -8.56931 6.04085 13.3743 -1.54221 -12.1853 -4.80845 2.89928 8.79734e-007 6.77266e-008 -3.61725e-007 4.76918 -1.9864 4.6094 -3.16042 14.2959 0.84774 6.96127 -4.92165 -0.608647 -6.95746e-015 1.59028e-015 -3.97569e-016 
